<mxfile host="app.diagrams.net" agent="Mozilla/5.0 (Macintosh; Intel Mac OS X 10_15_7) AppleWebKit/537.36 (KHTML, like Gecko) Chrome/135.0.0.0 Safari/537.36" version="26.2.14">
  <diagram name="Page-1" id="WIbQUbj1acmJuTs8AD88">
    <mxGraphModel dx="946" dy="527" grid="1" gridSize="10" guides="1" tooltips="1" connect="1" arrows="1" fold="1" page="1" pageScale="1" pageWidth="827" pageHeight="1169" math="0" shadow="0">
      <root>
        <mxCell id="0" />
        <mxCell id="1" parent="0" />
        <mxCell id="HN7D66_A-J5JgjkZZZL6-4" style="edgeStyle=orthogonalEdgeStyle;rounded=0;orthogonalLoop=1;jettySize=auto;html=1;" edge="1" parent="1" source="HN7D66_A-J5JgjkZZZL6-2" target="HN7D66_A-J5JgjkZZZL6-3">
          <mxGeometry relative="1" as="geometry" />
        </mxCell>
        <mxCell id="HN7D66_A-J5JgjkZZZL6-8" value="click ad&lt;div&gt;event&lt;/div&gt;" style="edgeLabel;html=1;align=center;verticalAlign=middle;resizable=0;points=[];" vertex="1" connectable="0" parent="HN7D66_A-J5JgjkZZZL6-4">
          <mxGeometry x="-0.2037" y="-1" relative="1" as="geometry">
            <mxPoint as="offset" />
          </mxGeometry>
        </mxCell>
        <mxCell id="HN7D66_A-J5JgjkZZZL6-2" value="" style="shape=mxgraph.cisco.computers_and_peripherals.web_browser;html=1;pointerEvents=1;dashed=0;fillColor=#036897;strokeColor=#ffffff;strokeWidth=2;verticalLabelPosition=bottom;verticalAlign=top;align=center;outlineConnect=0;" vertex="1" parent="1">
          <mxGeometry x="30" y="120" width="62" height="64" as="geometry" />
        </mxCell>
        <mxCell id="HN7D66_A-J5JgjkZZZL6-6" style="edgeStyle=orthogonalEdgeStyle;rounded=0;orthogonalLoop=1;jettySize=auto;html=1;" edge="1" parent="1" source="HN7D66_A-J5JgjkZZZL6-3" target="HN7D66_A-J5JgjkZZZL6-5">
          <mxGeometry relative="1" as="geometry" />
        </mxCell>
        <mxCell id="HN7D66_A-J5JgjkZZZL6-3" value="LogFile" style="rounded=1;whiteSpace=wrap;html=1;" vertex="1" parent="1">
          <mxGeometry x="200" y="122" width="120" height="60" as="geometry" />
        </mxCell>
        <mxCell id="HN7D66_A-J5JgjkZZZL6-5" value="LogFileWatcher" style="rounded=1;whiteSpace=wrap;html=1;" vertex="1" parent="1">
          <mxGeometry x="414" y="122" width="120" height="60" as="geometry" />
        </mxCell>
        <mxCell id="HN7D66_A-J5JgjkZZZL6-29" style="edgeStyle=orthogonalEdgeStyle;rounded=0;orthogonalLoop=1;jettySize=auto;html=1;" edge="1" parent="1" source="HN7D66_A-J5JgjkZZZL6-7" target="HN7D66_A-J5JgjkZZZL6-28">
          <mxGeometry relative="1" as="geometry" />
        </mxCell>
        <mxCell id="HN7D66_A-J5JgjkZZZL6-7" value="LogFileWatcher" style="rounded=1;whiteSpace=wrap;html=1;" vertex="1" parent="1">
          <mxGeometry x="20" y="260" width="120" height="60" as="geometry" />
        </mxCell>
        <mxCell id="HN7D66_A-J5JgjkZZZL6-40" style="edgeStyle=orthogonalEdgeStyle;rounded=0;orthogonalLoop=1;jettySize=auto;html=1;entryX=-0.007;entryY=0.625;entryDx=0;entryDy=0;entryPerimeter=0;" edge="1" parent="1" source="HN7D66_A-J5JgjkZZZL6-9" target="HN7D66_A-J5JgjkZZZL6-38">
          <mxGeometry relative="1" as="geometry" />
        </mxCell>
        <mxCell id="HN7D66_A-J5JgjkZZZL6-9" value="Data Aggregation Service" style="rounded=1;whiteSpace=wrap;html=1;" vertex="1" parent="1">
          <mxGeometry x="230" y="350" width="120" height="60" as="geometry" />
        </mxCell>
        <mxCell id="HN7D66_A-J5JgjkZZZL6-13" value="&lt;br&gt;Raw&amp;nbsp;&lt;div&gt;Data&lt;/div&gt;" style="strokeWidth=2;html=1;shape=mxgraph.flowchart.database;whiteSpace=wrap;" vertex="1" parent="1">
          <mxGeometry x="260" y="630" width="60" height="60" as="geometry" />
        </mxCell>
        <mxCell id="HN7D66_A-J5JgjkZZZL6-19" value="&lt;br&gt;Aggregated&lt;br&gt;Data" style="strokeWidth=2;html=1;shape=mxgraph.flowchart.database;whiteSpace=wrap;" vertex="1" parent="1">
          <mxGeometry x="880" y="495" width="65" height="60" as="geometry" />
        </mxCell>
        <mxCell id="HN7D66_A-J5JgjkZZZL6-24" value="Dashboard" style="rounded=1;whiteSpace=wrap;html=1;" vertex="1" parent="1">
          <mxGeometry x="852.5" y="670" width="120" height="60" as="geometry" />
        </mxCell>
        <mxCell id="HN7D66_A-J5JgjkZZZL6-25" style="edgeStyle=orthogonalEdgeStyle;rounded=0;orthogonalLoop=1;jettySize=auto;html=1;entryX=0.5;entryY=1;entryDx=0;entryDy=0;entryPerimeter=0;" edge="1" parent="1" source="HN7D66_A-J5JgjkZZZL6-24" target="HN7D66_A-J5JgjkZZZL6-19">
          <mxGeometry relative="1" as="geometry" />
        </mxCell>
        <mxCell id="HN7D66_A-J5JgjkZZZL6-30" style="edgeStyle=orthogonalEdgeStyle;rounded=0;orthogonalLoop=1;jettySize=auto;html=1;entryX=0;entryY=0.5;entryDx=0;entryDy=0;" edge="1" parent="1" source="HN7D66_A-J5JgjkZZZL6-28" target="HN7D66_A-J5JgjkZZZL6-9">
          <mxGeometry relative="1" as="geometry" />
        </mxCell>
        <mxCell id="HN7D66_A-J5JgjkZZZL6-32" style="edgeStyle=orthogonalEdgeStyle;rounded=0;orthogonalLoop=1;jettySize=auto;html=1;" edge="1" parent="1" source="HN7D66_A-J5JgjkZZZL6-28" target="HN7D66_A-J5JgjkZZZL6-31">
          <mxGeometry relative="1" as="geometry" />
        </mxCell>
        <mxCell id="HN7D66_A-J5JgjkZZZL6-28" value="Queue" style="sketch=0;outlineConnect=0;fontColor=#232F3E;gradientColor=none;strokeColor=#232F3E;fillColor=#ffffff;dashed=0;verticalLabelPosition=bottom;verticalAlign=top;align=center;html=1;fontSize=12;fontStyle=0;aspect=fixed;shape=mxgraph.aws4.resourceIcon;resIcon=mxgraph.aws4.queue;" vertex="1" parent="1">
          <mxGeometry x="50" y="420" width="60" height="60" as="geometry" />
        </mxCell>
        <mxCell id="HN7D66_A-J5JgjkZZZL6-33" style="edgeStyle=orthogonalEdgeStyle;rounded=0;orthogonalLoop=1;jettySize=auto;html=1;" edge="1" parent="1" source="HN7D66_A-J5JgjkZZZL6-31" target="HN7D66_A-J5JgjkZZZL6-13">
          <mxGeometry relative="1" as="geometry" />
        </mxCell>
        <mxCell id="HN7D66_A-J5JgjkZZZL6-31" value="Event&lt;br&gt;Persistent Service" style="rounded=1;whiteSpace=wrap;html=1;" vertex="1" parent="1">
          <mxGeometry x="230" y="480" width="120" height="60" as="geometry" />
        </mxCell>
        <mxCell id="HN7D66_A-J5JgjkZZZL6-56" style="edgeStyle=orthogonalEdgeStyle;rounded=0;orthogonalLoop=1;jettySize=auto;html=1;" edge="1" parent="1" source="HN7D66_A-J5JgjkZZZL6-34">
          <mxGeometry relative="1" as="geometry">
            <mxPoint x="510" y="480" as="targetPoint" />
          </mxGeometry>
        </mxCell>
        <mxCell id="HN7D66_A-J5JgjkZZZL6-34" value="Recalculation Service" style="rounded=1;whiteSpace=wrap;html=1;" vertex="1" parent="1">
          <mxGeometry x="450" y="630" width="120" height="60" as="geometry" />
        </mxCell>
        <mxCell id="HN7D66_A-J5JgjkZZZL6-35" style="edgeStyle=orthogonalEdgeStyle;rounded=0;orthogonalLoop=1;jettySize=auto;html=1;entryX=1;entryY=0.5;entryDx=0;entryDy=0;entryPerimeter=0;" edge="1" parent="1" source="HN7D66_A-J5JgjkZZZL6-34" target="HN7D66_A-J5JgjkZZZL6-13">
          <mxGeometry relative="1" as="geometry" />
        </mxCell>
        <mxCell id="HN7D66_A-J5JgjkZZZL6-44" style="edgeStyle=orthogonalEdgeStyle;rounded=0;orthogonalLoop=1;jettySize=auto;html=1;" edge="1" parent="1" source="HN7D66_A-J5JgjkZZZL6-37" target="HN7D66_A-J5JgjkZZZL6-43">
          <mxGeometry relative="1" as="geometry" />
        </mxCell>
        <mxCell id="HN7D66_A-J5JgjkZZZL6-37" value="Ad count&lt;br&gt;(Every min)" style="text;html=1;align=center;verticalAlign=middle;resizable=0;points=[];autosize=1;strokeColor=none;fillColor=none;" vertex="1" parent="1">
          <mxGeometry x="450" y="300" width="80" height="40" as="geometry" />
        </mxCell>
        <mxCell id="HN7D66_A-J5JgjkZZZL6-45" style="edgeStyle=orthogonalEdgeStyle;rounded=0;orthogonalLoop=1;jettySize=auto;html=1;" edge="1" parent="1" source="HN7D66_A-J5JgjkZZZL6-38">
          <mxGeometry relative="1" as="geometry">
            <mxPoint x="710" y="370" as="targetPoint" />
            <Array as="points">
              <mxPoint x="630" y="440" />
              <mxPoint x="630" y="370" />
            </Array>
          </mxGeometry>
        </mxCell>
        <mxCell id="HN7D66_A-J5JgjkZZZL6-38" value="Top n most clicked event&lt;br&gt;(Every min)" style="text;html=1;align=center;verticalAlign=middle;resizable=0;points=[];autosize=1;strokeColor=none;fillColor=none;" vertex="1" parent="1">
          <mxGeometry x="450" y="420" width="150" height="40" as="geometry" />
        </mxCell>
        <mxCell id="HN7D66_A-J5JgjkZZZL6-41" style="edgeStyle=orthogonalEdgeStyle;rounded=0;orthogonalLoop=1;jettySize=auto;html=1;entryX=-0.012;entryY=0.475;entryDx=0;entryDy=0;entryPerimeter=0;" edge="1" parent="1" source="HN7D66_A-J5JgjkZZZL6-9" target="HN7D66_A-J5JgjkZZZL6-37">
          <mxGeometry relative="1" as="geometry" />
        </mxCell>
        <mxCell id="HN7D66_A-J5JgjkZZZL6-42" value="Aggregated&lt;br&gt;Persistent Service" style="rounded=1;whiteSpace=wrap;html=1;" vertex="1" parent="1">
          <mxGeometry x="852.5" y="340" width="120" height="60" as="geometry" />
        </mxCell>
        <mxCell id="HN7D66_A-J5JgjkZZZL6-46" style="edgeStyle=orthogonalEdgeStyle;rounded=0;orthogonalLoop=1;jettySize=auto;html=1;" edge="1" parent="1" source="HN7D66_A-J5JgjkZZZL6-43" target="HN7D66_A-J5JgjkZZZL6-42">
          <mxGeometry relative="1" as="geometry" />
        </mxCell>
        <mxCell id="HN7D66_A-J5JgjkZZZL6-43" value="Queue" style="sketch=0;outlineConnect=0;fontColor=#232F3E;gradientColor=none;strokeColor=#232F3E;fillColor=#ffffff;dashed=0;verticalLabelPosition=bottom;verticalAlign=top;align=center;html=1;fontSize=12;fontStyle=0;aspect=fixed;shape=mxgraph.aws4.resourceIcon;resIcon=mxgraph.aws4.queue;" vertex="1" parent="1">
          <mxGeometry x="730" y="340" width="60" height="60" as="geometry" />
        </mxCell>
        <mxCell id="HN7D66_A-J5JgjkZZZL6-47" style="edgeStyle=orthogonalEdgeStyle;rounded=0;orthogonalLoop=1;jettySize=auto;html=1;entryX=0.5;entryY=0;entryDx=0;entryDy=0;entryPerimeter=0;" edge="1" parent="1" source="HN7D66_A-J5JgjkZZZL6-42" target="HN7D66_A-J5JgjkZZZL6-19">
          <mxGeometry relative="1" as="geometry" />
        </mxCell>
        <mxCell id="HN7D66_A-J5JgjkZZZL6-48" value="" style="endArrow=none;html=1;rounded=0;dashed=1;fontStyle=1;fontSize=28;" edge="1" parent="1">
          <mxGeometry relative="1" as="geometry">
            <mxPoint x="380" y="270" as="sourcePoint" />
            <mxPoint x="380" y="480" as="targetPoint" />
          </mxGeometry>
        </mxCell>
        <mxCell id="HN7D66_A-J5JgjkZZZL6-49" value="" style="resizable=0;html=1;whiteSpace=wrap;align=right;verticalAlign=bottom;" connectable="0" vertex="1" parent="HN7D66_A-J5JgjkZZZL6-48">
          <mxGeometry x="1" relative="1" as="geometry" />
        </mxCell>
        <mxCell id="HN7D66_A-J5JgjkZZZL6-50" value="" style="endArrow=none;html=1;rounded=0;dashed=1;fontStyle=1;fontSize=28;" edge="1" parent="1">
          <mxGeometry relative="1" as="geometry">
            <mxPoint x="650" y="270" as="sourcePoint" />
            <mxPoint x="650" y="480" as="targetPoint" />
          </mxGeometry>
        </mxCell>
        <mxCell id="HN7D66_A-J5JgjkZZZL6-51" value="" style="resizable=0;html=1;whiteSpace=wrap;align=right;verticalAlign=bottom;" connectable="0" vertex="1" parent="HN7D66_A-J5JgjkZZZL6-50">
          <mxGeometry x="1" relative="1" as="geometry" />
        </mxCell>
        <mxCell id="HN7D66_A-J5JgjkZZZL6-52" value="" style="endArrow=none;html=1;rounded=0;dashed=1;fontStyle=1;fontSize=28;" edge="1" parent="1">
          <mxGeometry relative="1" as="geometry">
            <mxPoint x="650" y="270" as="sourcePoint" />
            <mxPoint x="380" y="270" as="targetPoint" />
          </mxGeometry>
        </mxCell>
        <mxCell id="HN7D66_A-J5JgjkZZZL6-53" value="" style="resizable=0;html=1;whiteSpace=wrap;align=right;verticalAlign=bottom;" connectable="0" vertex="1" parent="HN7D66_A-J5JgjkZZZL6-52">
          <mxGeometry x="1" relative="1" as="geometry" />
        </mxCell>
        <mxCell id="HN7D66_A-J5JgjkZZZL6-54" value="" style="endArrow=none;html=1;rounded=0;dashed=1;fontStyle=1;fontSize=28;" edge="1" parent="1">
          <mxGeometry relative="1" as="geometry">
            <mxPoint x="650" y="479" as="sourcePoint" />
            <mxPoint x="380" y="479" as="targetPoint" />
          </mxGeometry>
        </mxCell>
        <mxCell id="HN7D66_A-J5JgjkZZZL6-55" value="" style="resizable=0;html=1;whiteSpace=wrap;align=right;verticalAlign=bottom;" connectable="0" vertex="1" parent="HN7D66_A-J5JgjkZZZL6-54">
          <mxGeometry x="1" relative="1" as="geometry" />
        </mxCell>
        <mxCell id="HN7D66_A-J5JgjkZZZL6-57" value="Data Aggregation Service&lt;br&gt;(Recalculation only)" style="rounded=1;whiteSpace=wrap;html=1;" vertex="1" parent="1">
          <mxGeometry x="450" y="525" width="120" height="60" as="geometry" />
        </mxCell>
      </root>
    </mxGraphModel>
  </diagram>
</mxfile>
